<svg xmlns="http://www.w3.org/2000/svg" width="47" height="29" fill="none" viewBox="0 0 47 29"><path fill="#000" d="M3.65627 0C1.65581 0 0 1.64165 0 3.625V12.9464V25.375C0 27.3583 1.65581 29 3.65627 29H15.1474C20.0329 29 24.0269 25.0401 24.0269 20.1964C24.0269 17.1343 22.3344 14.5573 19.9258 12.9788C21.7302 11.6549 22.9822 9.63207 22.9822 7.25C22.9822 3.26415 19.6899 0 15.6697 0H3.65627ZM32.9186 2.07143C32.0537 2.07143 31.3517 2.76743 31.3517 3.625C31.3517 4.48257 32.0537 5.17857 32.9186 5.17857H41.2758C42.1418 5.17857 42.8428 4.48257 42.8428 3.625C42.8428 2.76743 42.1408 2.07143 41.2758 2.07143H32.9186ZM3.65627 3.10714H15.6697C17.9968 3.10714 19.8483 4.94284 19.8483 7.25C19.8483 9.55715 17.9968 11.3929 15.6697 11.3929H15.1474H3.13394V3.625C3.13394 3.31942 3.34805 3.10714 3.65627 3.10714ZM36.5586 7.25C30.9836 7.25 26.5835 11.841 26.2407 17.4696C26.1437 17.6754 26.0934 17.8998 26.0934 18.127C26.0934 18.3542 26.1437 18.5786 26.2407 18.7845C26.5855 24.4113 30.9858 29 36.5586 29C40.1987 29 43.7939 27.1632 45.7217 24.137C45.8366 23.9646 45.9156 23.7712 45.9542 23.5681C45.9927 23.3651 45.9901 23.1564 45.9463 22.9544C45.9025 22.7524 45.8186 22.5611 45.6993 22.3916C45.5801 22.2222 45.4279 22.078 45.2518 21.9675C45.0757 21.8571 44.8791 21.7826 44.6736 21.7484C44.468 21.7141 44.2577 21.7209 44.0548 21.7683C43.852 21.8157 43.6607 21.9027 43.4922 22.0242C43.3236 22.1458 43.1813 22.2994 43.0734 22.4762C41.817 24.4484 39.0757 25.8929 36.5586 25.8929C33.0619 25.8929 30.2397 23.235 29.5419 19.6786H44.3812C45.9188 19.6786 47.1627 18.3137 46.9826 16.7879V16.7859C46.3527 11.4466 41.9178 7.25 36.5586 7.25ZM36.5586 10.3571C40.0636 10.3571 42.997 13.0141 43.6957 16.5714H29.5419C30.2395 13.0149 33.0608 10.3571 36.5586 10.3571ZM3.13394 14.5H15.1474C18.3391 14.5 20.893 17.032 20.893 20.1964C20.893 23.3609 18.3391 25.8929 15.1474 25.8929H3.65627C3.34805 25.8929 3.13394 25.6806 3.13394 25.375V14.5Z"/></svg>