<svg width="33" height="33" viewBox="0 0 33 33" fill="none" xmlns="http://www.w3.org/2000/svg">
<path d="M16.5 0C13.2366 0 10.0465 0.967708 7.3331 2.78074C4.61969 4.59379 2.50485 7.17073 1.256 10.1857C0.00714574 13.2006 -0.319603 16.5183 0.317049 19.719C0.953702 22.9196 2.52518 25.8596 4.83275 28.1673C7.14031 30.4748 10.0803 32.0463 13.281 32.683C16.4817 33.3196 19.7993 32.9929 22.8142 31.744C25.8293 30.4951 28.4062 28.3803 30.2193 25.6669C32.0323 22.9535 33 19.7633 33 16.5C33 14.3332 32.5731 12.1876 31.744 10.1857C30.9149 8.18384 29.6995 6.3649 28.1673 4.83273C26.6351 3.30057 24.8162 2.08518 22.8142 1.25598C20.8124 0.426788 18.6668 0 16.5 0ZM16.5 3.3C19.8903 3.29864 23.1492 4.61163 25.5915 6.96299C23.0703 8.44172 20.3988 9.64754 17.622 10.56C16.2401 8.17876 14.6558 5.92092 12.8865 3.8115C14.0613 3.47325 15.2775 3.30107 16.5 3.3ZM9.7185 5.19749C11.4472 7.17503 12.9987 9.30071 14.355 11.55C11.1162 12.3542 7.79214 12.7642 4.455 12.771H3.861C4.7969 9.60239 6.887 6.89998 9.7185 5.19749ZM6.6 25.2615C4.45296 22.8505 3.27703 19.7284 3.3 16.5C3.3 16.335 3.3 16.17 3.3 16.0215H4.422C8.32818 15.9865 12.2123 15.4316 15.972 14.3715C16.5 15.378 16.995 16.4175 17.4735 17.49C14.902 18.3965 12.507 19.7419 10.395 21.4665L9.9 21.8625C8.72375 22.9188 7.62117 24.0545 6.6 25.2615ZM16.5 29.7C13.8701 29.7057 11.2995 28.918 9.1245 27.4395C9.9278 26.5181 10.7874 25.6474 11.6985 24.8325L12.2265 24.387C14.1788 22.7451 16.4159 21.4756 18.8265 20.6415C19.8186 23.3244 20.5912 26.0835 21.1365 28.8915C19.6512 29.4338 18.0812 29.7076 16.5 29.7ZM24.1395 27.2415C23.5996 24.7444 22.8941 22.2859 22.0275 19.8825H22.5885C22.6535 19.8665 22.7215 19.8665 22.7865 19.8825H22.968H23.133H23.925C25.6615 19.8874 27.3847 20.1831 29.0235 20.757C28.1231 23.3811 26.413 25.6515 24.1395 27.2415ZM23.925 16.5C23.5785 16.5 23.232 16.5 22.902 16.5C22.6883 16.4731 22.4722 16.4731 22.2585 16.5C21.81 16.5275 21.3637 16.5826 20.922 16.665H20.757C20.2785 15.5595 19.7835 14.487 19.239 13.365C22.1935 12.3503 25.0312 11.0228 27.7035 9.40499C29.0291 11.5324 29.7216 13.9935 29.7 16.5C29.7 16.7805 29.7 17.061 29.7 17.3415C27.8301 16.7643 25.8819 16.4805 23.925 16.5Z" fill="#1E1E2F"/>
</svg>
