<svg width="33" height="33" viewBox="0 0 33 33" fill="none" xmlns="http://www.w3.org/2000/svg">
<path d="M25.311 5.709C24.9195 5.709 24.5367 5.82513 24.2109 6.0427C23.8854 6.26025 23.6316 6.56949 23.4816 6.93129C23.3318 7.29308 23.2927 7.69119 23.3691 8.07528C23.4455 8.45937 23.6339 8.81217 23.911 9.08907C24.1878 9.36598 24.5406 9.55456 24.9247 9.63095C25.3089 9.70735 25.7068 9.66814 26.0687 9.51829C26.4305 9.36842 26.7397 9.11463 26.9574 8.78902C27.1748 8.46343 27.291 8.08061 27.291 7.689C27.291 7.16387 27.0824 6.66026 26.711 6.28893C26.3398 5.91761 25.8362 5.709 25.311 5.709ZM32.901 9.702C32.869 8.333 32.6126 6.97851 32.142 5.6925C31.7224 4.59216 31.0695 3.59581 30.228 2.772C29.4109 1.92626 28.4123 1.2774 27.3075 0.8745C26.025 0.389664 24.6688 0.127396 23.298 0.0989999C21.549 -9.22009e-08 20.988 0 16.5 0C12.012 0 11.451 -9.22009e-08 9.702 0.0989999C8.3311 0.127396 6.97511 0.389664 5.6925 0.8745C4.58977 1.28147 3.59193 1.92977 2.772 2.772C1.92626 3.58905 1.2774 4.58773 0.8745 5.6925C0.389664 6.97511 0.127396 8.3311 0.0989999 9.702C-9.22009e-08 11.451 0 12.012 0 16.5C0 20.988 -9.22009e-08 21.549 0.0989999 23.298C0.127396 24.6688 0.389664 26.025 0.8745 27.3075C1.2774 28.4123 1.92626 29.4109 2.772 30.228C3.59193 31.0702 4.58977 31.7186 5.6925 32.1255C6.97511 32.6103 8.3311 32.8726 9.702 32.901C11.451 33 12.012 33 16.5 33C20.988 33 21.549 33 23.298 32.901C24.6688 32.8726 26.025 32.6103 27.3075 32.1255C28.4123 31.7226 29.4109 31.0738 30.228 30.228C31.0731 29.4073 31.7267 28.41 32.142 27.3075C32.6126 26.0215 32.869 24.667 32.901 23.298C32.901 21.549 33 20.988 33 16.5C33 12.012 33 11.451 32.901 9.702ZM29.931 23.1C29.919 24.1474 29.7294 25.1851 29.37 26.169C29.1065 26.8871 28.6834 27.5359 28.1325 28.0665C27.5972 28.6118 26.9498 29.0341 26.235 29.304C25.2511 29.6634 24.2134 29.853 23.166 29.865C21.516 29.9475 20.9055 29.964 16.566 29.964C12.2265 29.964 11.616 29.964 9.966 29.865C8.87847 29.8853 7.79557 29.718 6.765 29.37C6.08154 29.0864 5.46374 28.6651 4.95 28.1325C4.40235 27.6024 3.98449 26.9531 3.729 26.235C3.32617 25.2371 3.10273 24.1756 3.069 23.1C3.069 21.45 2.97 20.8395 2.97 16.5C2.97 12.1605 2.97 11.55 3.069 9.9C3.07639 8.82925 3.27187 7.76812 3.6465 6.765C3.93698 6.06855 4.38285 5.44774 4.95 4.95C5.45129 4.38268 6.07083 3.93211 6.765 3.63C7.77076 3.26707 8.8308 3.07738 9.9 3.069C11.55 3.069 12.1605 2.97 16.5 2.97C20.8395 2.97 21.45 2.97 23.1 3.069C24.1474 3.08101 25.1851 3.27071 26.169 3.63C26.9188 3.90827 27.5918 4.3607 28.1325 4.95C28.6732 5.45685 29.0958 6.0765 29.37 6.765C29.7368 7.76973 29.9265 8.83044 29.931 9.9C30.0135 11.55 30.03 12.1605 30.03 16.5C30.03 20.8395 30.0135 21.45 29.931 23.1ZM16.5 8.0355C14.8266 8.03877 13.1917 8.53797 11.8019 9.47004C10.4121 10.4021 9.32973 11.7252 8.69159 13.2723C8.05347 14.8191 7.88819 16.5206 8.21665 18.1614C8.54512 19.8023 9.3526 21.3089 10.537 22.4911C11.7215 23.6732 13.2297 24.4778 14.8713 24.803C16.5127 25.1283 18.2139 24.9597 19.7596 24.3185C21.3053 23.6775 22.6263 22.5925 23.5556 21.2008C24.485 19.8092 24.981 18.1734 24.981 16.5C24.9831 15.3864 24.7652 14.2834 24.3395 13.2544C23.9139 12.2254 23.2891 11.2906 22.5009 10.504C21.7127 9.71733 20.7766 9.09427 19.7469 8.67063C18.7169 8.247 17.6136 8.03114 16.5 8.0355ZM16.5 21.9945C15.4133 21.9945 14.351 21.6723 13.4475 21.0685C12.5439 20.4648 11.8396 19.6066 11.4237 18.6026C11.0079 17.5987 10.8991 16.4939 11.1111 15.428C11.3231 14.3623 11.8464 13.3832 12.6148 12.6148C13.3832 11.8464 14.3623 11.3231 15.428 11.1111C16.4939 10.8991 17.5987 11.0079 18.6026 11.4237C19.6066 11.8396 20.4648 12.5439 21.0685 13.4475C21.6723 14.351 21.9945 15.4133 21.9945 16.5C21.9945 17.2215 21.8524 17.936 21.5762 18.6026C21.3002 19.2694 20.8954 19.8749 20.3853 20.3853C19.8749 20.8954 19.2694 21.3002 18.6026 21.5762C17.936 21.8524 17.2215 21.9945 16.5 21.9945Z" fill="#1E1E2F"/>
</svg>
