<svg xmlns="http://www.w3.org/2000/svg" width="27" height="26" fill="none" viewBox="0 0 27 26"><path fill="#1E1E2F" fill-rule="evenodd" d="M6.51048 3.03013C6.51048 4.71456 5.25375 6.06237 3.23588 6.06237H3.1989C1.25602 6.06237 0 4.71456 0 3.03013C0 1.31008 1.29427 0 3.27401 0C5.25375 0 6.47293 1.31008 6.51048 3.03013ZM6.12926 8.45682V25.9995H0.342151V8.45682H6.12926ZM26.9997 25.9995L27 15.9412C27 10.5529 24.145 8.04498 20.3367 8.04498C17.2642 8.04498 15.8886 9.74764 15.1205 10.9422V8.45738H9.33266C9.40894 10.1036 9.33266 26 9.33266 26H15.1205V16.2027C15.1205 15.6786 15.1581 15.1555 15.3111 14.7801C15.7294 13.7327 16.6816 12.6483 18.2804 12.6483C20.3753 12.6483 21.2128 14.2569 21.2128 16.6143V25.9995H26.9997Z" clip-rule="evenodd"/></svg>