<svg width="71" height="46" viewBox="0 0 71 46" fill="none" xmlns="http://www.w3.org/2000/svg">
<path d="M46.1042 42.8794L46.1121 42.8827C48.5207 43.8964 51.1861 44.3902 54.0867 44.3902C57.1441 44.3902 59.8624 43.8379 62.1968 42.6787L62.2056 42.6743L62.2143 42.6698C64.515 41.4865 66.3155 39.8845 67.5541 37.8484C68.7752 35.8412 69.3902 33.652 69.3902 31.3077C69.3902 28.6617 68.7525 26.3759 67.3498 24.5783C66.0584 22.9234 64.4969 21.6595 62.6684 20.8149C60.9695 20.0301 58.8155 19.2622 56.2264 18.5058C54.3826 17.9564 52.9705 17.4882 51.9734 17.1007C51.1119 16.7174 50.4035 16.2541 49.8298 15.721C49.4337 15.2941 49.2244 14.7758 49.2244 14.0769C49.2244 12.8869 49.5693 12.1784 50.0877 11.7226C50.7168 11.2027 51.6106 10.8797 52.9038 10.8797C54.4326 10.8797 55.4907 11.2636 56.2274 11.8907L56.2475 11.9079L56.2683 11.9242C57.0551 12.544 57.4346 13.2799 57.4867 14.2105L57.5601 15.523H58.8747H67.5494H69.0477L68.9356 14.0289C68.6465 10.173 67.0722 7.06949 64.1745 4.86481C61.3557 2.65406 57.745 1.60983 53.4671 1.60983C50.6068 1.60983 48.0094 2.10274 45.703 3.12354C43.385 4.11206 41.5334 5.57792 40.206 7.53412C39.9278 7.9442 39.6789 8.36899 39.4592 8.80803C38.3116 7.39212 36.9447 6.1681 35.3635 5.13856C31.8409 2.80758 27.7184 1.66577 23.0531 1.66577C19.078 1.66577 15.4262 2.57608 12.1272 4.41355C8.86104 6.21624 6.27599 8.76637 4.38709 12.0394L4.38708 12.0394L4.38433 12.0442C2.52457 15.2966 1.60983 18.9702 1.60983 23.028C1.60983 27.0857 2.52456 30.7593 4.38433 34.0117L4.38427 34.0118L4.39081 34.023C6.2798 37.2562 8.86155 39.8006 12.1183 41.6374L12.1271 41.6424L12.136 41.6472C15.4358 43.4457 19.1036 44.3342 23.1095 44.3342C26.6836 44.3342 29.9459 43.6031 32.8667 42.1124L32.8732 42.109C35.4722 40.7654 37.6629 39.0315 39.427 36.9049C39.6931 37.4208 39.9992 37.9167 40.3454 38.3919C41.7829 40.3656 43.7181 41.8579 46.1042 42.8794ZM38.3955 16.6979C38.5566 17.7098 38.8311 18.6512 39.2284 19.5119H21.0253H19.6351V20.9021V26.8881V28.2783H21.0253H32.7165C32.0955 30.0348 31.1434 31.4178 29.8839 32.4744C28.2678 33.7936 26.1422 34.5049 23.3911 34.5049C21.1533 34.5049 19.2563 34.028 17.6557 33.1196C16.0547 32.211 14.7919 30.9161 13.8594 29.1998C12.9708 27.496 12.5015 25.453 12.5015 23.028C12.5015 20.6804 12.9696 18.6699 13.8642 16.9588C14.7627 15.2402 15.9907 13.9476 17.5538 13.042C19.1205 12.1344 20.9401 11.6629 23.0531 11.6629C24.9639 11.6629 26.5682 12.0513 27.9092 12.7807C29.2423 13.5057 30.2937 14.5586 31.0726 15.9769L31.4685 16.6979H32.2911H38.3955ZM43.7078 24.249C44.0668 24.4655 44.4367 24.6639 44.8177 24.8441L44.8355 24.8525L44.8534 24.8604C46.5432 25.6019 48.6894 26.3484 51.2748 27.1036L51.2835 27.1062L51.2921 27.1086C53.1458 27.6241 54.5437 28.09 55.5138 28.5029L55.5408 28.5144L55.5682 28.5247C56.4874 28.871 57.2052 29.3416 57.7575 29.919C58.193 30.3743 58.4421 30.9664 58.4421 31.8112C58.4421 32.8281 58.0895 33.5903 57.3651 34.2116C56.6375 34.8 55.543 35.1763 53.9177 35.1763C52.3629 35.1763 51.3 34.7801 50.5684 34.136C49.8646 33.4843 49.4255 32.5733 49.3336 31.2662L49.2428 29.9735H47.9469H43.1909C43.3889 29.3239 43.5528 28.663 43.6826 27.9908L43.7078 27.8603V27.7273V24.249Z" fill="url(#paint0_linear_995_430)" stroke="white" stroke-width="2.78034"/>
<defs>
<linearGradient id="paint0_linear_995_430" x1="49.2213" y1="27.1069" x2="-4.44342" y2="22.9717" gradientUnits="userSpaceOnUse">
<stop stop-color="#9076FF"/>
<stop offset="1" stop-color="#598FF7"/>
</linearGradient>
</defs>
</svg>
