<svg xmlns="http://www.w3.org/2000/svg" width="281" height="183" fill="none" viewBox="0 0 281 183"><mask id="mask0_1120_63" width="281" height="183" x="0" y="0" maskUnits="userSpaceOnUse" style="mask-type:alpha"><rect width="281" height="183" fill="#D9D9D9"/></mask><g mask="url(#mask0_1120_63)"><path stroke="url(#paint0_linear_1120_63)" stroke-dasharray="6 6" stroke-width="3" d="M258.695 65.5966C260.228 66.9548 261.472 68.4522 262.403 70.0886L261.099 70.8302C261.536 71.5983 261.895 72.3982 262.176 73.2309C262.456 74.0635 262.654 74.9179 262.77 75.7939L264.257 75.5957C264.506 77.4617 264.422 79.4062 264.022 81.4155L262.551 81.1229C262.218 82.797 261.645 84.5414 260.833 86.3484L262.201 86.9632C261.448 88.6398 260.506 90.3492 259.386 92.0848L258.126 91.2711C257.152 92.7793 256.033 94.3151 254.775 95.8733L255.942 96.8158C254.771 98.2649 253.487 99.7273 252.094 101.199L251.004 100.168C249.731 101.513 248.364 102.868 246.904 104.231L247.928 105.327C246.55 106.614 245.094 107.905 243.562 109.199L242.594 108.053C241.159 109.266 239.655 110.481 238.085 111.698L239.004 112.883C237.498 114.05 235.934 115.217 234.314 116.382L233.438 115.165C231.903 116.268 230.316 117.371 228.68 118.47L229.517 119.715C227.928 120.783 226.294 121.847 224.615 122.907L223.814 121.639C222.203 122.657 220.551 123.671 218.859 124.679L219.627 125.968C217.976 126.952 216.287 127.932 214.563 128.905L213.826 127.599C212.159 128.539 210.459 129.475 208.726 130.403L209.434 131.725C207.736 132.636 206.006 133.539 204.247 134.435L203.566 133.099C201.856 133.97 200.118 134.834 198.353 135.691L199.008 137.04C197.271 137.883 195.508 138.718 193.72 139.544L193.091 138.183C191.345 138.99 189.576 139.788 187.784 140.578L188.389 141.951C186.619 142.73 184.828 143.501 183.016 144.263L182.435 142.88C180.659 143.626 178.863 144.363 177.047 145.091L177.605 146.483C175.808 147.203 173.991 147.913 172.157 148.613L171.622 147.212C169.82 147.9 168 148.578 166.163 149.245L166.676 150.655C164.854 151.317 163.015 151.969 161.162 152.609L160.672 151.191C159.753 151.509 158.831 151.823 157.905 152.135C156.979 152.447 156.054 152.754 155.131 153.057L155.599 154.482C153.735 155.094 151.877 155.687 150.026 156.262L149.581 154.829C147.715 155.409 145.855 155.97 144.004 156.513L144.426 157.952C142.542 158.504 140.666 159.037 138.799 159.551L138.401 158.105C136.515 158.624 134.639 159.124 132.774 159.604L133.148 161.057C131.244 161.547 129.351 162.016 127.471 162.465L127.122 161.007C125.217 161.462 123.325 161.896 121.447 162.309L121.769 163.774C119.846 164.198 117.937 164.599 116.045 164.979L115.749 163.508C113.826 163.894 111.919 164.258 110.03 164.598L110.297 166.074C108.354 166.425 106.43 166.751 104.527 167.054L104.291 165.573C102.349 165.882 100.43 166.166 98.5333 166.425L98.7363 167.911C96.7748 168.179 94.8379 168.42 92.9276 168.635L92.7599 167.145C90.8021 167.365 88.8731 167.557 86.9747 167.721L87.104 169.216C85.1263 169.387 83.181 169.528 81.2704 169.639L81.1835 168.141C79.2151 168.256 77.2848 168.337 75.395 168.387L75.4345 169.887C73.4392 169.939 71.4876 169.956 69.5827 169.938L69.5973 168.438C67.6116 168.419 65.6787 168.36 63.802 168.263L63.7245 169.761C61.7226 169.658 59.7819 169.51 57.9063 169.319L58.0583 167.827C56.0716 167.625 54.1624 167.373 52.3354 167.072L52.0917 168.552C50.0918 168.223 48.1845 167.835 46.3759 167.389L46.735 165.933C44.7903 165.453 42.9708 164.907 41.2829 164.295L40.7717 165.705C38.8294 165.001 37.0456 164.21 35.4314 163.33L36.149 162.013C34.4093 161.066 32.898 160.023 31.6203 158.891L30.6257 160.014C29.0922 158.656 27.8487 157.159 26.918 155.522L28.2218 154.781C27.7849 154.013 27.4254 153.213 27.145 152.38C26.8646 151.547 26.667 150.693 26.5502 149.817L25.0634 150.015C24.8147 148.149 24.899 146.205 25.2986 144.195L26.7698 144.488C27.1026 142.814 27.6754 141.069 28.4874 139.262L27.1192 138.648C27.8726 136.971 28.8142 135.262 29.9349 133.526L31.195 134.34C32.169 132.831 33.2873 131.296 34.5458 129.738L33.3789 128.795C34.5493 127.346 35.8336 125.884 37.2269 124.412L38.3163 125.443C39.5892 124.098 40.9571 122.743 42.4167 121.38L41.393 120.283C42.7709 118.997 44.2271 117.705 45.7585 116.412L46.7264 117.558C48.1621 116.345 49.666 115.13 51.2355 113.913L50.3165 112.728C51.8222 111.56 53.3865 110.393 55.0071 109.228L55.8827 110.446C57.4177 109.343 59.0043 108.24 60.6408 107.141L59.8042 105.896C61.3926 104.828 63.0269 103.764 64.7053 102.704L65.5063 103.972C67.1173 102.954 68.7697 101.94 70.4619 100.931L69.6938 99.6431C71.345 98.6587 73.0333 97.6793 74.7573 96.7061L75.4947 98.0123C77.1613 97.0715 78.8618 96.1363 80.5948 95.2077L79.8864 93.8855C81.5851 92.9753 83.3145 92.0716 85.0735 91.1754L85.7545 92.5119C87.4644 91.6407 89.2025 90.7764 90.9678 89.9201L90.3131 88.5705C92.05 87.7279 93.8129 86.893 95.6005 86.0666L96.2299 87.4282C97.9754 86.6213 99.7448 85.8226 101.537 85.0327L100.932 83.6601C102.701 82.8804 104.492 82.1095 106.305 81.3479L106.886 82.7308C108.662 81.9846 110.458 81.2475 112.274 80.5202L111.716 79.1277C113.513 78.4079 115.329 77.6976 117.163 76.9976L117.698 78.399C119.501 77.7111 121.321 77.0331 123.157 76.3657L122.645 74.9559C124.467 74.2939 126.305 73.6423 128.159 73.0017L128.649 74.4195C129.567 74.1021 130.49 73.7875 131.416 73.4757C132.342 73.1639 133.266 72.8565 134.19 72.5537L133.722 71.1284C135.586 70.5171 137.444 69.9239 139.295 69.3489L139.74 70.7814C141.606 70.2018 143.465 69.6407 145.317 69.0981L144.895 67.6587C146.779 67.1066 148.655 66.5736 150.521 66.0596L150.919 67.5058C152.805 66.9866 154.681 66.487 156.547 66.0069L156.173 64.5542C158.077 64.0643 159.97 63.5947 161.85 63.1454L162.199 64.6043C164.104 64.149 165.996 63.7148 167.874 63.3014L167.551 61.8365C169.475 61.4131 171.383 61.0116 173.276 60.6318L173.571 62.1025C175.495 61.7166 177.402 61.3533 179.29 61.0127L179.024 59.5365C180.967 59.1861 182.891 58.8595 184.794 58.5567L185.03 60.0381C186.971 59.7292 188.891 59.4453 190.787 59.1863L190.584 57.7001C192.546 57.4321 194.483 57.1907 196.393 56.9757L196.561 58.4663C198.519 58.246 200.448 58.0538 202.346 57.8895L202.217 56.3951C204.194 56.224 206.14 56.083 208.05 55.9721L208.137 57.4696C210.106 57.3553 212.036 57.2734 213.926 57.2236L213.886 55.7241C215.881 55.6715 217.833 55.6545 219.738 55.6731L219.723 57.173C221.709 57.1923 223.642 57.2506 225.519 57.3477L225.596 55.8497C227.598 55.9532 229.539 56.1006 231.414 56.2916L231.262 57.7839C233.249 57.9863 235.158 58.2381 236.985 58.5389L237.229 57.0588C239.229 57.388 241.136 57.7756 242.945 58.2215L242.586 59.6779C244.53 60.1574 246.35 60.7037 248.038 61.3156L248.549 59.9054C250.491 60.6094 252.275 61.4011 253.889 62.2804L253.172 63.5976C254.911 64.5453 256.423 65.5879 257.7 66.7195L258.695 65.5966Z"/><g filter="url(#filter0_d_1120_63)"><circle cx="38.563" cy="147.438" r="35.438" fill="url(#paint1_linear_1120_63)"/></g><circle cx="28.438" cy="147.438" r="35.438" fill="url(#paint2_radial_1120_63)"/><g filter="url(#filter1_d_1120_63)"><circle cx="199.188" cy="81.813" r="81.813" fill="url(#paint3_linear_1120_63)"/></g><circle cx="181.812" cy="73.813" r="81.813" fill="url(#paint4_radial_1120_63)"/></g><defs><filter id="filter0_d_1120_63" width="74.875" height="74.875" x="2.125" y="111" color-interpolation-filters="sRGB" filterUnits="userSpaceOnUse"><feFlood flood-opacity="0" result="BackgroundImageFix"/><feColorMatrix in="SourceAlpha" result="hardAlpha" type="matrix" values="0 0 0 0 0 0 0 0 0 0 0 0 0 0 0 0 0 0 127 0"/><feOffset dx="1" dy="1"/><feGaussianBlur stdDeviation="1"/><feComposite in2="hardAlpha" operator="out"/><feColorMatrix type="matrix" values="0 0 0 0 0 0 0 0 0 0 0 0 0 0 0 0 0 0 0.25 0"/><feBlend in2="BackgroundImageFix" mode="normal" result="effect1_dropShadow_1120_63"/><feBlend in="SourceGraphic" in2="effect1_dropShadow_1120_63" mode="normal" result="shape"/></filter><filter id="filter1_d_1120_63" width="170.817" height="170.817" x="115.577" y="-1.798" color-interpolation-filters="sRGB" filterUnits="userSpaceOnUse"><feFlood flood-opacity="0" result="BackgroundImageFix"/><feColorMatrix in="SourceAlpha" result="hardAlpha" type="matrix" values="0 0 0 0 0 0 0 0 0 0 0 0 0 0 0 0 0 0 127 0"/><feOffset dx="1.798" dy="1.798"/><feGaussianBlur stdDeviation="1.798"/><feComposite in2="hardAlpha" operator="out"/><feColorMatrix type="matrix" values="0 0 0 0 0 0 0 0 0 0 0 0 0 0 0 0 0 0 0.25 0"/><feBlend in2="BackgroundImageFix" mode="normal" result="effect1_dropShadow_1120_63"/><feBlend in="SourceGraphic" in2="effect1_dropShadow_1120_63" mode="normal" result="shape"/></filter><linearGradient id="paint0_linear_1120_63" x1="192.5" x2="37.5" y1="73.5" y2="158" gradientUnits="userSpaceOnUse"><stop stop-color="#5D43B8"/><stop offset="1" stop-color="#ADB2E1"/></linearGradient><linearGradient id="paint1_linear_1120_63" x1="15.586" x2="67.769" y1="118.231" y2="178.981" gradientUnits="userSpaceOnUse"><stop stop-color="#E9E9FF"/><stop offset="1" stop-color="#6F767C"/></linearGradient><radialGradient id="paint2_radial_1120_63" cx="0" cy="0" r="1" gradientTransform="translate(28.4375 147.437) rotate(71.7829) scale(32.3877)" gradientUnits="userSpaceOnUse"><stop stop-color="#EEEDEB"/><stop offset="1" stop-color="#EEEDEB" stop-opacity="0"/></radialGradient><linearGradient id="paint3_linear_1120_63" x1="146.144" x2="331.5" y1="14.385" y2="193" gradientUnits="userSpaceOnUse"><stop stop-color="#8080FF"/><stop offset="1" stop-color="#1B3143"/></linearGradient><radialGradient id="paint4_radial_1120_63" cx="0" cy="0" r="1" gradientTransform="translate(181.812 73.8125) rotate(51.3753) scale(79.5998)" gradientUnits="userSpaceOnUse"><stop stop-color="#D9DDFF"/><stop offset="1" stop-color="#EEEDEB" stop-opacity="0"/></radialGradient></defs></svg>