<svg xmlns="http://www.w3.org/2000/svg" width="38" height="31" fill="none" viewBox="0 0 38 31"><path stroke="#000" stroke-linecap="round" stroke-linejoin="round" stroke-width="2" d="M37 1.01625C35.433 2.10794 33.698 2.9429 31.8618 3.48899C30.8763 2.36981 29.5665 1.57656 28.1097 1.21654C26.6528 0.85651 25.1192 0.947073 23.7161 1.47598C22.3131 2.00488 21.1084 2.9466 20.2649 4.17379C19.4214 5.40097 18.9799 6.85439 19 8.33749V9.95366C16.1243 10.0273 13.2748 9.3974 10.7053 8.12003C8.13576 6.84266 5.92597 4.9575 4.27273 2.63242C4.27273 2.63242 -2.27273 17.1779 12.4545 23.6426C9.0845 25.9019 5.06989 27.0348 1 26.8749C15.7273 34.9558 33.7273 26.8749 33.7273 8.28901C33.7258 7.83883 33.6819 7.38976 33.5964 6.94759C35.2664 5.3209 36.445 3.26711 37 1.01625V1.01625Z"/></svg>